C:/Program Files/Krita (x64)/bin/ffmpeg.exe -hide_banner -y -y -r 24 -start_number 0 -start_number_range 1 -i C:/Users/almin/Documents/Mes documents/Art/Games/Game Jam_Pirate software/Assets/For UI/frame%04d.png -i C:/Users/almin/Documents/Mes documents/Art/Games/Game Jam_Pirate software/Assets/For UI/KritaTempPalettegen_%06d.png -lavfi [0:v][1:v]paletteuse=dither=sierra2_4a:diff_mode=none -f gif -loop 0 -gifflags +transdiff C:/Users/almin/Documents/Mes documents/Art/Games/Game Jam_Pirate software/Assets/For UI/Placeholder transition screen.gif
=====================================================
Input #0, image2, from 'C:/Users/almin/Documents/Mes documents/Art/Games/Game Jam_Pirate software/Assets/For UI/frame%04d.png':
  Duration: 00:00:00.52, start: 0.000000, bitrate: N/A
  Stream #0:0: Video: png, rgba(pc), 320x180 [SAR 9448:9448 DAR 16:9], 25 fps, 25 tbr, 25 tbn, 25 tbc
Input #1, image2, from 'C:/Users/almin/Documents/Mes documents/Art/Games/Game Jam_Pirate software/Assets/For UI/KritaTempPalettegen_%06d.png':
  Duration: 00:00:00.04, start: 0.000000, bitrate: N/A
  Stream #1:0: Video: png, rgba(pc), 16x16 [SAR 1:1 DAR 1:1], 25 fps, 25 tbr, 25 tbn, 25 tbc
Stream mapping:
  Stream #0:0 (png) -> paletteuse:default
  Stream #1:0 (png) -> paletteuse:palette
  paletteuse -> Stream #0:0 (gif)
Press [q] to stop, [?] for help
[image2 @ 00000202316ba240] Thread message queue blocking; consider raising the thread_queue_size option (current value: 8)
Output #0, gif, to 'C:/Users/almin/Documents/Mes documents/Art/Games/Game Jam_Pirate software/Assets/For UI/Placeholder transition screen.gif':
  Metadata:
    encoder         : Lavf58.76.100
  Stream #0:0: Video: gif, pal8(pc, gbr/unknown/unknown, progressive), 320x180 [SAR 1:1 DAR 16:9], q=2-31, 200 kb/s, 24 fps, 100 tbn (default)
    Metadata:
      encoder         : Lavc58.134.100 gif
frame=    1 fps=0.0 q=-0.0 size=       0kB time=00:00:00.01 bitrate=   0.0kbits/s speed=0.446x    frame=   13 fps=0.0 q=-0.0 Lsize=     980kB time=00:00:00.51 bitrate=15745.0kbits/s speed=8.61x    
video:980kB audio:0kB subtitle:0kB other streams:0kB global headers:0kB muxing overhead: 0.001993%
